# xmcd CD database file
#
# Track frame offsets:
#	150
#	14933
#	30976
#	47010
#	63057
#	75124
#	92038
#	105148
#	122711
#	137817
#	153453
#
# Disc length: 2166 seconds
#
# Revision: 0
# Processed by: cddbd v1.5.1PL0 Copyright (c) Steve Scherf et al.
# Submitted via: CDex 1.50
#
DISCID=7a08740b
DTITLE=Rex Hobart and the Misery Boys - Empty House
DYEAR=2004
DGENRE=Country
TTITLE0=The Good Ain't Gone
TTITLE1=Every Night I Leave You in My Mind
TTITLE2=Don't Make Me Break Your Heart
TTITLE3=It Won't Be Long (And I'll Be Hating You)
TTITLE4=I Just Lost My Mind
TTITLE5=I Don't Like that Mirror
TTITLE6=The Tear I Left Behind
TTITLE7=Empty House Dawn and Twilight
TTITLE8=Lets' Leave Me
TTITLE9=Heartache to Hide
TTITLE10=Black Iron Bridge
EXTD=YEAR: 2004
EXTT0=
EXTT1=
EXTT2=
EXTT3=
EXTT4=
EXTT5=
EXTT6=
EXTT7=
EXTT8=
EXTT9=
EXTT10=
PLAYORDER=
